<?xml version="1.0" encoding="UTF-8"?>
<svg width="24px" height="24px" viewBox="0 0 24 24" version="1.1" xmlns="http://www.w3.org/2000/svg">
    <g stroke="none" stroke-width="1" fill="none" fill-rule="evenodd">
        <path d="M13.2,2.65 L21.35,10.8 C21.7,11.15 21.7,11.75 21.35,12.1 L12.1,21.35 C11.75,21.7 11.15,21.7 10.8,21.35 L2.65,13.2 C2.3,12.85 2.3,12.25 2.65,11.9 L11.9,2.65 C12.25,2.3 12.85,2.3 13.2,2.65 Z M12,4.8 L4.8,12 L12,19.2 L19.2,12 L12,4.8 Z M12,7 C13.6568542,7 15,8.34314575 15,10 C15,11.6568542 13.6568542,13 12,13 C10.3431458,13 9,11.6568542 9,10 C9,8.34314575 10.3431458,7 12,7 Z M12,9 C11.4477153,9 11,9.44771525 11,10 C11,10.5522847 11.4477153,11 12,11 C12.5522847,11 13,10.5522847 13,10 C13,9.44771525 12.5522847,9 12,9 Z" fill="#00ff9b"/>
    </g>
</svg>
