<?xml version="1.0" encoding="UTF-8"?>
<svg width="24" height="24" viewBox="0 0 24 24" fill="none" xmlns="http://www.w3.org/2000/svg">
  <path d="M12 2C7.03 2 3 6.03 3 11C3 14.85 5.57 18.17 9.12 19.31C9.04 18.8 9 18.28 9 17.75C9 15.42 10.46 13.35 12.6 12.35C12.2 11.95 12 11.45 12 10.9C12 9.85 12.9 9 14 9C15.1 9 16 9.85 16 10.9C16 11.45 15.8 11.95 15.4 12.35C17.54 13.35 19 15.42 19 17.75C19 18.28 18.96 18.8 18.88 19.31C22.43 18.17 25 14.85 25 11C25 6.03 20.97 2 16 2H12Z" fill="#00ff9b"/>
  <path d="M12 17C10.9 17 10 17.9 10 19C10 20.1 10.9 21 12 21C13.1 21 14 20.1 14 19C14 17.9 13.1 17 12 17ZM12 14C13.1 14 14 13.1 14 12C14 10.9 13.1 10 12 10C10.9 10 10 10.9 10 12C10 13.1 10.9 14 12 14Z" fill="#00ff9b"/>
</svg>
