<?xml version="1.0" encoding="UTF-8"?>
<svg width="40" height="40" viewBox="0 0 40 40" fill="none" xmlns="http://www.w3.org/2000/svg">
  <path d="M32.3 19.3L29.6 16.6C29.9 15.1 29.9 13.6 29.6 12.1L32.3 9.4C32.7 9 32.8 8.4 32.5 7.9C31.4 5.8 29.9 4 28.1 2.6C27.6 2.3 27 2.4 26.6 2.8L23.9 5.5C22.6 4.8 21.3 4.3 20 4.1V0.7C20 0.1 19.6-0.3 19-0.3C16.7-0.3 14.5 0.2 12.5 1.2C12 1.4 11.7 2 11.7 2.5V5.9C10.4 6.4 9.1 7.2 8 8.2L4.7 6.2C4.2 5.9 3.6 6 3.2 6.4C1.8 8.2 0.8 10.2 0.2 12.4C0.1 13 0.4 13.6 0.9 13.8L4.2 15.8C4 17.3 4 18.7 4.2 20.2L0.9 22.2C0.4 22.4 0.1 23 0.2 23.6C0.8 25.8 1.8 27.8 3.2 29.6C3.6 30 4.2 30.1 4.7 29.8L8 27.8C9.1 28.8 10.4 29.6 11.7 30.1V33.5C11.7 34.1 12.1 34.5 12.6 34.7C14.6 35.7 16.8 36.2 19.1 36.2C19.7 36.2 20.1 35.8 20.1 35.2V31.8C21.4 31.6 22.7 31.1 24 30.4L26.7 33.1C27.1 33.5 27.7 33.6 28.2 33.3C30 31.9 31.5 30.1 32.6 28C32.8 27.6 32.7 27 32.3 26.6L29.6 23.9C29.9 22.4 29.9 20.8 32.3 19.3ZM19 24C16.2 24 14 21.8 14 19C14 16.2 16.2 14 19 14C21.8 14 24 16.2 24 19C24 21.8 21.8 24 19 24Z" fill="url(#paint0_linear)"/>
  <defs>
    <linearGradient id="paint0_linear" x1="0" y1="0" x2="36" y2="36" gradientUnits="userSpaceOnUse">
      <stop offset="0%" stop-color="#00ff9b"/>
      <stop offset="100%" stop-color="#00b8ff"/>
    </linearGradient>
  </defs>
</svg>
